<svg width="121" height="121" fill="none" xmlns="http://www.w3.org/2000/svg"><path d="M63.919 41.667h.041-.041zm0 0l-2.966 15.545 10.793.04L57.08 78.336l2.966-17.104-10.793-.04L63.92 41.666zm0-2.625h-.206c-.22.027-.412.075-.577.143a3.36 3.36 0 00-.556.308 2.7 2.7 0 00-.556.492.318.318 0 00-.062.082.32.32 0 01-.062.082L47.112 59.591c-.632.875-.7 1.79-.206 2.748.083.164.186.321.309.471.124.15.26.288.412.41.151.124.316.226.494.308a2.758 2.758 0 001.133.246l7.62.041-2.43 14.069a2.458 2.458 0 00.289 1.702 2.71 2.71 0 001.277 1.169c.165.082.336.137.515.164.178.027.364.041.556.041.796 0 1.469-.355 2.018-1.066L73.888 58.81c.631-.874.7-1.79.206-2.748-.495-.957-1.277-1.435-2.348-1.435h-7.621l2.389-12.346c.028-.11.048-.212.062-.307a2.318 2.318 0 00-.082-1.005 2.968 2.968 0 00-.66-1.148 2.124 2.124 0 00-.515-.41 3.125 3.125 0 00-.618-.267 2.21 2.21 0 00-.658-.103h-.124zm-11.996 73.074l-1.677-.451-1.637 2.155-4.043-1.085-.337-2.686-1.77-.476 1.452 10.567 1.46.392 6.552-8.416zm-6.664 6.081l-.475-3.737 2.772.745-2.297 2.992zm-3.464-9.272l-1.462-.675-1.801 3.902c-.502.185-1.002.2-1.498-.028-.814-.376-1.084-1.025-.662-1.94l1.432-3.102-1.462-.675-1.55 3.356c-.827 1.792-.184 2.906 1.214 3.552.686.316 1.437.293 1.95.083l-.263.572 1.461.675 2.64-5.72zm-8.257-1.578c.873-1.353.927-2.418-.273-3.192-.682-.441-1.414-.546-1.898-.493l-.264 1.313c.28-.02.644-.017 1.009.218.447.289.392.787.02 1.363l-1.245 1.929-1.706-1.101-.82 1.27 1.706 1.101-.95 1.471 1.353.873 3.068-4.752zm-4.503-6.155l-1.24-1.025-4.013 4.856 1.24 1.026 4.013-4.857zm-5.327 6.712c.41-.496.286-1.071-.135-1.419-.357-.294-.945-.308-1.355.189a.925.925 0 00.115 1.311c.421.348 1.01.362 1.375-.081zm-.735-8.047l-2.438-2.55-1.082 1.035 2.438 2.55 1.082-1.035zm.082-8.772l-.938-1.308-2.4 1.722c-.042-.418-.28-.919-.607-1.374-1.175-1.638-3.148-1.842-4.706-.724-1.513 1.085-1.953 2.779-.94 4.19.473.66 1.178 1.066 1.748 1.14l-.49.35.94 1.309 7.393-5.305zm-8.07 2.034c-.62-.865-.37-1.767.448-2.355.854-.612 1.889-.562 2.542.348.31.433.454.777.48 1.293l-2.071 1.485c-.581-.065-1.08-.328-1.398-.772zm1.457-7.029l-.729-1.435-3.857 1.958a1.972 1.972 0 01-1.14-.976c-.399-.786-.171-1.482.665-1.907l3.07-1.56-.728-1.435-3.258 1.654c-1.76.894-1.984 2.185-1.287 3.559.33.649.896 1.115 1.43 1.3l-3.633 1.844.73 1.435 8.737-4.437zm-3.369-7.537l-.538-1.517-5.938 2.106.538 1.517 5.938-2.106zm-8.02 3.023c.608-.215.796-.773.614-1.287-.155-.436-.652-.75-1.259-.534a.925.925 0 00-.575 1.184c.182.515.68.829 1.22.637zm4.074-10.698c.383-.085.653.228.753.68.136.614-.028 1.625-.342 2.082l1.194.539c.374-.384.735-1.668.484-2.803-.332-1.504-1.302-2.321-2.518-2.052-2.174.48-.879 3.678-1.904 3.905-.273.06-.596-.17-.702-.648-.145-.656.013-1.365.219-1.797l-1.251-.34c-.271.461-.526 1.32-.262 2.51.28 1.271 1.168 2.107 2.371 1.84 2.242-.495.96-3.696 1.958-3.916zm1.149-4.442l-.114-1.606-4.315.307a1.972 1.972 0 01-.671-1.341c-.063-.88.417-1.434 1.353-1.5l3.435-.245-.115-1.606-3.644.26c-1.97.14-2.677 1.243-2.567 2.779.051.726.392 1.376.812 1.753l-4.064.29.115 1.605 9.775-.696zm-.179-8.254l.094-1.607-6.29-.365-.093 1.607 6.29.365zm-8.563-.328c.643.037 1.033-.403 1.065-.948.026-.462-.31-.944-.953-.981a.925.925 0 00-.99.868c-.032.545.305 1.028.878 1.06zm9.068-4.794l.3-1.582-4.224-.8c-.301-.44-.438-.923-.336-1.46.166-.88.73-1.3 1.72-1.113l3.357.635.3-1.582-3.632-.687c-1.94-.366-2.864.527-3.15 2.04-.14.743.064 1.466.393 1.913l-.619-.117-.3 1.582 6.191 1.17zm2.357-6.674c1.362.472 2.416-.689 3.017-2.422.6-1.733.463-3.306-.873-3.769-1.336-.463-2.416.689-3.017 2.422l-.023.066a.65.65 0 01-.331-.026c-.066-.023-.146-.05-.216-.104l.037-.106c.531-1.535-.13-2.875-1.321-3.288a2.263 2.263 0 00-.818-.12l.12-1.07-1.236-.369-.227 1.937c-.406.318-.744.78-.95 1.374-.545 1.575.165 2.902 1.356 3.315.873.302 1.819.052 2.488-.724a.74.74 0 00.377.28.953.953 0 00.447.036c-.156 1.22.177 2.224 1.17 2.568zm.49-1.416c-.437-.15-.521-.847-.146-1.932.38-1.097.869-1.566 1.305-1.414.477.165.508.887.15 1.919-.357 1.031-.846 1.588-1.31 1.428zm-4.477-2.173c-.543-.188-.859-.771-.62-1.46.247-.714.834-.955 1.39-.762.595.206.805.797.58 1.445-.238.688-.795.97-1.35.777zM21.2 28.527l1.116-1.662-2.746.197c-.438-1.256-1.42-2.506-2.71-3.373l-.89 1.325c1.046.703 1.633 1.485 1.992 2.131l-3.118.199c.196-.694-.146-1.616-.867-2.1-1.104-.741-2.383-.268-3.062.743-.68 1.01-.634 2.374.47 3.115.767.516 1.54.495 2.182.117.026 1.417.162 2.722 1.521 3.636 1.348.905 3.062.488 4.17-1.162.828-1.232.828-2.261.633-3.05l1.309-.116zm-3.247 2.222a1.512 1.512 0 01-2.117.415c-.616-.413-.812-1.101-.916-2.302l3.363-.135c.223.622.154 1.301-.33 2.022zm-5.732-2.89a.81.81 0 01-.225-1.146.828.828 0 011.146-.225c.36.242.479.743.213 1.138a.816.816 0 01-1.134.233zm13.672-4.411l1.33-1.115-.826-2.577 3.207-2.69 2.393 1.264 1.406-1.179-9.49-4.868-1.159.972 3.14 10.193zm-1.162-8.946l3.335 1.753-2.2 1.845-1.134-3.598zm9.584 2.478l1.39-.81-2.164-3.714c.137-.517.41-.936.882-1.21.774-.452 1.462-.302 1.97.57l1.72 2.95 1.39-.81-1.86-3.194c-.995-1.705-2.276-1.817-3.606-1.042-.653.38-1.065 1.01-1.187 1.55l-.317-.543-1.39.81 3.172 5.443zm6.027-5.86c.607 1.49 1.449 2.145 2.771 1.606.752-.306 1.258-.845 1.492-1.273l-.924-.969c-.144.24-.355.538-.757.702-.493.2-.87-.13-1.128-.765l-.867-2.126 1.88-.766-.57-1.4-1.88.766-.661-1.62-1.491.607 2.135 5.237zm7.624-.16l1.552-.43-1.68-6.072-1.551.43 1.679 6.071zM45.52 2.745c.171.62.714.848 1.24.703.445-.123.793-.597.622-1.218a.925.925 0 00-1.14-.658c-.527.146-.875.62-.722 1.173zm7.015 4.013l3.487-.536-.227-1.48-3.488.535.228 1.48zm7.54-2.378c.458-.219.916-.45 1.644-.464.938-.016 1.228.553 1.204 1.603-.312-.218-.875-.39-1.434-.38-1.274.022-2.285.698-2.26 2.084.021 1.217.86 1.917 2.008 1.897.853-.015 1.52-.363 1.847-.845l.013.728 1.4-.025-.068-3.835c-.03-1.666-.704-2.606-2.566-2.573a4.672 4.672 0 00-2.215.64l.427 1.17zm1.67 3.373c-.504.008-.901-.25-.91-.727-.009-.532.463-.792.995-.801.462-.008.827.083 1.11.288l.012.644c-.19.284-.536.584-1.207.596zm9.553 2.049l1.596.207L74.155.29 72.558.083l-.47 3.624c-.32-.254-.71-.403-1.265-.475-2.013-.261-3.608.93-3.863 2.901-.247 1.902.741 3.315 2.532 3.547.806.105 1.416-.14 1.89-.531l-.084.653zm-1.28-1.564c-.847-.11-1.488-.828-1.344-1.939.15-1.152 1.08-1.681 2.024-1.559.43.056.817.233 1.187.535l-.326 2.513c-.408.315-.958.526-1.54.45zm12.119-2.097l-1.63-.46-1.778 2.275c-.272.345-.604.848-.841 1.275a8.527 8.527 0 00-.07-1.503l-.382-2.917-1.846-.521 1.067 6.877 1.145.324 4.335-5.35zm4.796 7.155c-.453.119-1.155.11-1.857-.205-.907-.408-1.384-1.19-1.122-2.116l4.15 1.865c.162-.189.285-.394.445-.752.723-1.61-.04-3.225-1.52-3.891-1.89-.849-3.642-.024-4.394 1.649-.815 1.813-.115 3.57 1.737 4.402.804.361 1.725.498 2.517.271l.044-1.223zm-.52-3.902c.844.379 1.082 1.146.754 1.843l-2.822-1.268c.491-.685 1.188-.97 2.069-.575zm2.421 7.096l1.367.851 2.235-3.589c.347-.212.76-.318 1.235-.022.285.177.398.314.563.631l1.287-.98c-.097-.242-.267-.446-.706-.72-.642-.4-1.145-.334-1.61-.144l.326-.523-1.366-.852-3.33 5.348zm6.405 1.477c-1.013 1.252-1.18 2.304-.07 3.203.631.51 1.347.693 1.835.692l.403-1.277c-.28-.01-.643-.052-.98-.325-.414-.334-.306-.824.125-1.357l1.444-1.785 1.579 1.277.951-1.175-1.579-1.277 1.101-1.36-1.252-1.013-3.557 4.397zm3.819 6.6l1.125 1.152 4.508-4.4-1.124-1.152-4.509 4.4zm6.014-6.105c-.461.45-.398 1.035-.017 1.426.323.33.906.407 1.367-.043a.926.926 0 00.026-1.317c-.382-.39-.965-.467-1.376-.066zm.785 11.421c-.312.237-.688.066-.968-.302-.381-.501-.656-1.488-.562-2.034l-1.31.011c-.179.505.031 1.823.735 2.748.932 1.226 2.155 1.562 3.147.807 1.772-1.347-.744-3.707.091-4.343.223-.17.613-.096.909.294.407.535.56 1.245.555 1.724l1.278-.216c.053-.533-.076-1.42-.814-2.389-.788-1.036-1.944-1.423-2.925-.678-1.827 1.39.678 3.76-.136 4.378zm.966 4.82l.81 1.391 5.445-3.168-.809-1.392-5.446 3.169zm7.321-4.455c-.556.324-.639.906-.364 1.378.232.4.779.616 1.336.292a.926.926 0 00.346-1.27c-.275-.472-.822-.689-1.318-.4zm-4.913 9.004l.624 1.484 3.962-1.665c.495.202.875.528 1.087 1.03.347.827.109 1.489-.82 1.88l-3.149 1.324.624 1.484 3.407-1.433c1.819-.765 2.096-2.02 1.5-3.44-.293-.697-.864-1.186-1.384-1.377l.58-.244-.624-1.485-5.807 2.442zm1.72 6.865c-1.397.36-1.635 1.91-1.178 3.686.456 1.776 1.438 3.012 2.808 2.66 1.37-.351 1.635-1.908 1.178-3.684l-.017-.068a.648.648 0 01.291-.162c.068-.017.149-.038.237-.032l.028.109c.404 1.573 1.696 2.325 2.916 2.011.272-.07.529-.193.748-.35l.492.957 1.234-.375-.881-1.74c.164-.49.19-1.06.034-1.67-.415-1.614-1.74-2.329-2.961-2.015-.895.23-1.545.96-1.674 1.977a.74.74 0 00-.469-.024.954.954 0 00-.393.216c-.543-1.103-1.376-1.757-2.393-1.495zm.373 1.451c.447-.115.902.419 1.188 1.53.289 1.126.14 1.786-.307 1.901-.488.125-.913-.46-1.185-1.517-.272-1.058-.171-1.792.304-1.914zm4.933-.66c.555-.142 1.142.17 1.323.875.188.732-.169 1.257-.738 1.404-.611.156-1.112-.22-1.283-.885-.181-.705.128-1.247.698-1.394zm2.365 12.218c.218.458.449.916.462 1.644.015.938-.554 1.227-1.604 1.203.218-.312.391-.875.382-1.434-.022-1.274-.697-2.285-2.083-2.262-1.218.02-1.918.859-1.898 2.007.014.854.361 1.52.843 1.848l-.728.012.024 1.4 3.835-.065c1.666-.028 2.607-.702 2.575-2.564a4.675 4.675 0 00-.639-2.215l-1.169.425zm-3.375 1.667c-.008-.504.251-.9.727-.909.532-.009.792.463.801.995.008.462-.084.827-.289 1.11l-.644.012c-.283-.191-.583-.536-.595-1.208zm-4.265 4.844l-.209 1.597 2.93.382c-.256.334-.423.862-.496 1.418-.261 1.999 1.041 3.495 2.942 3.744 1.847.24 3.324-.696 3.549-2.418.105-.805-.132-1.584-.498-2.027l.597.078.208-1.597-9.023-1.177zm7.282 4.028c-.138 1.055-.936 1.544-1.935 1.414-1.041-.136-1.763-.88-1.618-1.99.068-.528.199-.878.533-1.272l2.526.33c.38.444.565.977.494 1.518zm-8.554 3.358l-.448 1.546 2.837.823c-.303.291-.549.788-.705 1.326-.562 1.936.497 3.613 2.339 4.147 1.789.519 3.391-.182 3.875-1.85.226-.78.11-1.586-.184-2.08l.578.168.448-1.546-8.74-2.534zm6.586 5.087c-.296 1.022-1.159 1.384-2.127 1.103-1.009-.292-1.609-1.137-1.298-2.212.149-.511.331-.838.72-1.176l2.448.71c.307.496.409 1.05.257 1.575zm-4.889 3.962c-1.178-.522-1.925-.286-2.316.597-.307.691-.31 1.287-.189 1.739l1.263.192c-.049-.236-.066-.474.036-.704.153-.346.503-.375 1.155-.085l6.772 3 .652-1.472-7.373-3.267zm-4.434 4.978l-.812 1.39 5.44 3.177.812-1.39-5.44-3.177zm7.483 4.175c-.556-.324-1.103-.109-1.378.363-.233.399-.152.981.404 1.306a.925.925 0 001.276-.325c.276-.472.194-1.054-.302-1.344zm-11.493 5.255c-.11-.595-.043-1.213.373-1.759.577-.757 1.649-1.03 2.54-.352.879.671.906 1.766.363 2.479-.348.456-.785.774-1.441.873l.555 1.373c.824-.11 1.587-.673 2.216-1.496 1.163-1.525.809-3.486-.649-4.598-1.581-1.206-3.459-.913-4.699.713-.62.812-.897 1.798-.651 2.654l1.393.112zm-.532 4.211c-.181.474-.353.958-.871 1.469-.668.659-1.271.447-1.978-.33.377-.057.903-.321 1.302-.714.907-.894 1.173-2.08.199-3.067-.855-.868-1.944-.796-2.762.01-.608.6-.85 1.31-.755 1.886l-.511-.519-.997.983 2.693 2.732c1.17 1.186 2.307 1.402 3.633.094a4.678 4.678 0 001.162-1.991l-1.115-.553zM98.896 99.4c.359-.354.825-.44 1.159-.101.374.378.212.892-.167 1.266-.329.324-.657.51-1.004.557l-.452-.458c-.057-.337-.014-.793.464-1.264zm-3.298 4.362c-.966-1.287-1.946-1.707-3.088-.851-.65.488-1.002 1.137-1.12 1.611l1.14.702c.078-.269.207-.61.554-.871.426-.319.874-.095 1.285.454l1.378 1.837-1.624 1.218.907 1.209 1.624-1.218 1.05 1.4 1.288-.966-3.394-4.525zm-7.334 2.09l-1.392.809 3.165 5.447 1.392-.809-3.165-5.447zm4.45 7.324c-.324-.557-.906-.639-1.378-.365-.4.232-.616.779-.293 1.336a.926.926 0 001.27.347c.472-.275.69-.822.4-1.318zm-7.421-2.167c-.73-1.743-2.517-2.526-4.44-1.719-1.924.807-2.617 2.631-1.885 4.373.731 1.743 2.517 2.527 4.441 1.72 1.923-.807 2.616-2.631 1.884-4.374zm-1.588.666c.423 1.007-.003 1.945-.881 2.314-.904.379-1.87-.005-2.281-.986-.423-1.007-.028-1.947.889-2.332.903-.379 1.867.036 2.273 1.004zm-7.42-.669l-1.562.391 1.042 4.169c-.275.459-.656.785-1.185.917-.87.217-1.487-.119-1.732-1.097l-.828-3.314-1.562.39.896 3.586c.479 1.915 1.677 2.38 3.171 2.007.734-.183 1.304-.672 1.572-1.158l.153.612 1.562-.391-1.527-6.112z" fill="#322C42"/></svg>