<svg width="58" height="58" fill="none" xmlns="http://www.w3.org/2000/svg"><circle cx="29" cy="29" r="29" fill="#322C42"/><path d="M23.777 36.25l.003.002-1.11 1.989a1.443 1.443 0 01-2.007.555c-.702-.419-.943-1.347-.537-2.073l.818-1.465.079-.14c.14-.21.486-.569 1.178-.501 0 0 1.63.183 1.747 1.058 0 0 .016.288-.171.576zm15.755-5.079h-3.464c-.236-.016-.339-.103-.38-.154l-.002-.005-3.708-6.639-.005.004-.222-.33c-.365-.576-.943.898-.943.898-.691 1.642.098 3.508.373 4.072l5.15 9.222a1.442 1.442 0 002.006.555c.702-.419.943-1.347.537-2.073l-1.288-2.306c-.025-.056-.068-.207.196-.208h1.75c.81 0 1.468-.68 1.468-1.518s-.657-1.518-1.468-1.518zm-6.728 2.064s.185.972-.53.972H19.467c-.81 0-1.468-.68-1.468-1.518s.657-1.518 1.468-1.518h3.292c.532-.032.658-.349.658-.349l.003.002 4.297-7.694h-.001a.35.35 0 00.001-.312L26.3 20.277c-.405-.726-.165-1.654.538-2.073.702-.42 1.6-.17 2.005.555l.659 1.179.657-1.177a1.443 1.443 0 012.005-.555c.703.419.943 1.347.538 2.073l-5.98 10.707c-.026.065-.034.167.16.185h3.575v.036s2.066.033 2.348 2.028z" fill="#fff"/></svg>