<svg width="887" height="364" fill="none" xmlns="http://www.w3.org/2000/svg"><path opacity=".24" d="M7.926 362.693c-23.374-28.376-54.736-100.232 6.8-160.643 76.922-75.514 121.011 23.452 96.152 43.62-24.859 20.168-31.66-54.173.469-74.107 32.129-19.934 77.859 78.797 147.042 36.819C327.571 166.404 345.513 64.461 398 61c45.5-3 89.371 68.113 23.377 100.713-19.465 9.616-27.204-34.708 45.731-45.73C541.5 104.74 648.175-25.217 673.972 5.27c20.637 24.39-87.012 107.676-37.992 129.453S826.8 89.486 886 5.27" stroke="#0A0E1D"/></svg>