<svg width="1440" height="445" fill="none" xmlns="http://www.w3.org/2000/svg"><path opacity=".24" d="M1481.15 444.373c23.37-28.376 54.73-100.232-6.8-160.643-76.92-75.514-121.01 23.451-96.16 43.62 24.86 20.168 31.66-54.174-.46-74.107-32.13-19.934-77.86 78.797-147.05 36.819-69.18-41.979-87.12-143.922-139.61-147.382-45.5-3-89.37 68.113-23.37 100.713 19.46 9.615 27.2-34.708-45.73-45.731-74.397-11.242-181.072-141.2-206.869-110.712-20.637 24.389 87.012 107.675 37.992 129.453-49.02 21.777-186.52-90.702-250.02-129.453-63.5-38.752-155 85.249-149.5 109.249 5.5 23.999 24.766 10.999 25 0 1-47-57.5-146.5-169-96s-88 287.5-162 178.5-51.5-459-284-158.5" stroke="#0A0E1D"/></svg>