<svg width="1440" height="586" fill="none" xmlns="http://www.w3.org/2000/svg"><path d="M-8 585c60.637-86.072 193.585-244.977 193.585-188.158 0 22.158-102.143 6.506-44.748-48.04S267.3 255.224 305.725 286.75c38.425 31.527-85.119 199.667-22.374 217.182 62.745 17.515 84.633-207.173 140.082-204.171 55.449 3.003-84.633-105.088-37.939-146.623 46.694-41.535 170.239-4.504 130.841-75.563-39.399-71.06 91.442-6.505 42.316-7.506C509.525 69.068 490.069.009 572.27 1.01c82.201 1 160.832 207.094 271.73 83.49 110.898-123.604 90.849 49.881 112 31 10.906-9.735-51.035-23.413-52.981 7.113-1.945 30.525-17.997 172.644 67.123 124.604 85.118-48.04-91.443 134.613-45.721 170.643 45.721 36.03 160.019 14.512 151.759-53.545-8.27-68.057-50.1-172.645 27.72-164.137 77.82 8.507 156.24 186.286 176.56 135.613 8.54-21.291-53.5-20.517-37.45 17.515 16.05 38.032 60.99 98.194 85.12 59.049 38.53-62.505-103.12-221.185 0-251.71 82.49-24.421 108.95-23.187 111.87-19.517" stroke="#C4C5C9"/></svg>