<svg width="1440" height="445" fill="none" xmlns="http://www.w3.org/2000/svg"><path opacity=".24" d="M-7.074 444.674c-23.374-28.376-54.736-100.232 6.8-160.643 76.922-75.514 121.011 23.452 96.152 43.62-24.858 20.168-31.66-54.173.47-74.107 32.128-19.934 77.858 78.797 147.041 36.819C312.571 248.385 330.514 146.442 383 142.981c45.5-3 89.372 68.113 23.377 100.713-19.465 9.616-27.204-34.708 45.731-45.73 74.392-11.243 181.067-141.2 206.864-110.713 20.637 24.39-87.012 107.676-37.992 129.453S807.5 126.003 871 87.251C934.5 48.5 1026 172.5 1020.5 196.5s-24.766 11-25 0c-1-47 57.5-146.5 169-96s88 287.5 162 178.5 51.5-459 284-158.5" stroke="#0A0E1D"/></svg>