<svg width="48" height="48" fill="none" xmlns="http://www.w3.org/2000/svg"><circle cx="24" cy="24" r="24" fill="#fff"/><path fill-rule="evenodd" clip-rule="evenodd" d="M9 18.347C9 12.08 14.373 7 21 7h4.878C29.812 7 33 10.015 33 13.734v1.338c0 3.792-3.83 6.535-7.69 5.507l-3.83-1.02c-2.763-.736-3.656-4.02-1.61-5.925a3.855 3.855 0 012.625-1.017h1.697c1.043 0 1.89.8 1.89 1.788 0 .987-.847 1.787-1.89 1.787h-1.41l3.553.946c1.448.386 2.885-.643 2.885-2.066v-1.338c0-1.745-1.496-3.16-3.342-3.16H21c-4.54 0-8.22 3.48-8.22 7.773V24H9v-5.653z" fill="url(#paint0_linear)"/><mask id="a" maskUnits="userSpaceOnUse" x="9" y="7" width="25" height="33"><path d="M21.232 7c-6.73 0-12.187 4.662-12.187 10.413L9 18.868v15.59C9 37.517 12.084 40 15.888 40h9.446c1.743 0 3.432-1.033 4.783-1.918l1.613-1.057 1.597-1.297c.475-.386.719-.37.666-.912l-.15-1.537c-.03-.313-.198-.606-.474-.828l-1.424-1.146.995-3.58c.255-.458-.05-.992-.647-1.136l-17.532-4.255a5.51 5.51 0 00-.566-.105 11.1 11.1 0 01-1.311-.425v-4.39c0-3.94 3.738-7.134 8.348-7.134h4.592c2.074 0 3.756 1.438 3.756 3.21v1.504c0 1.408-1.592 2.415-3.168 2.005l-3.583-.933a.116.116 0 01-.055-.026.111.111 0 01-.03-.048.1.1 0 01-.002-.055.098.098 0 01.032-.045.135.135 0 01.09-.034h1.61c1.06 0 1.92-.734 1.92-1.64 0-.906-.86-1.64-1.92-1.64h-1.61c-1.094 0-2.14.386-2.888 1.068-2.011 1.83-1.076 4.826 1.734 5.558l3.583.933c4.043 1.052 8.127-1.532 8.127-5.143V13.49c0-3.584-3.401-6.49-7.596-6.49h-4.592z" fill="#61BB37"/></mask><g mask="url(#a)"><g filter="url(#filter0_d)"><path d="M14.196 22.34C12.92 22.015 10.476 21.14 9 19v15.492C9 37.534 12.084 40 15.889 40h9.447c1.742 0 3.253-1.028 4.605-1.908l1.613-1.05 1.597-1.288c.475-.384.897-.367.844-.906l-.149-1.527c-.03-.31-.198-.603-.474-.823l-1.424-1.139.905-3.65c.255-.455-.05-.985-.647-1.128l-17.444-4.136a5.594 5.594 0 00-.566-.105z" fill="url(#paint1_linear)"/></g><g filter="url(#filter1_f)"><path d="M39.742 35.675c-1.508 5.702-7.876 8.928-14.225 7.204-6.348-1.723-10.272-7.743-8.764-13.446 1.508-5.703 7.877-8.928 14.225-7.205 6.348 1.724 10.272 7.744 8.764 13.447z" fill="#0B2D55" fill-opacity=".25"/></g></g><path d="M25 31c0 1.657-1.12 3-2.5 3S20 32.657 20 31s1.12-3 2.5-3 2.5 1.343 2.5 3z" fill="#A1E13B"/><path d="M34.09 22.052c1.43.624-1.301 4.927-1.301 5.669 0 .717 1.135.83 1.494 1.445 1.917 3.278-.416 6.237-2.26 7.232-2.329 3.323-7.098 2.77-9.191 2.077-1.634.544-4.29-.015-1.838-6.6 3.063-8.233 12.141-10.24 13.096-9.823z" fill="url(#paint2_linear)"/><g filter="url(#filter2_d)"><path d="M25.596 37.312c-4.23-.699-5.142.264-5.596 1.073 5.878 4.012 11.802-.56 12.414-1.82.034-.07 2.21-1.026 2.586-2.565-.64 1.053-5.06 4.03-9.404 3.312z" fill="url(#paint3_linear)"/></g><path d="M30 32.5c0 1.933-1.343 3.5-3 3.5s-3-1.567-3-3.5 1.343-3.5 3-3.5 3 1.567 3 3.5z" fill="#79C939"/><path d="M30 32a3 3 0 11-6 0 3 3 0 016 0z" fill="#fff"/><path d="M28 31c0 .552-.224 1-.5 1s-.5-.448-.5-1 .224-1 .5-1 .5.448.5 1z" fill="#121521"/><path fill-rule="evenodd" clip-rule="evenodd" d="M29 31c0 .552-.672 1-1.5 1s-1.5-.448-1.5-1 .672-1 1.5-1 1.5.448 1.5 1zm-1.5.515c.427 0 .773-.23.773-.515 0-.285-.346-.515-.773-.515-.427 0-.773.23-.773.515 0 .285.346.515.773.515z" fill="#79C939"/><path d="M35.124 36c-.687 0-1.305.658-1.669 1.16-.162.226-.256.515-.417.742-.207.29-.515.474-.784.635-.298.178-.273.519-.224.667.162.074.604.134 1.081-.222.1-.075.191-.158.274-.245.457-.479 1.03-1.258 1.515-.823.239.213.15.949.075 1.29-.1.104-.313.365-.373.579-.074.267 1.081.311 1.342 0 .209-.25-.087-.49-.261-.579a1.943 1.943 0 01-.164-.788c.006-.327.314-.338.515-.12.459.497 1.108.874 1.624.908.537.036.323-.311.15-.49C36.54 38.27 36.278 36 35.123 36z" fill="#60B938"/><path d="M33 39a1 1 0 11-2 0 1 1 0 012 0zm6 0a1 1 0 11-2 0 1 1 0 012 0zm-3 .5c0 .276-.448.5-1 .5s-1-.224-1-.5.448-.5 1-.5 1 .224 1 .5z" fill="#8AD33A"/><defs><linearGradient id="paint0_linear" x1="33.01" y1="11.209" x2="9.7" y2="21.959" gradientUnits="userSpaceOnUse"><stop stop-color="#58B42D"/><stop offset="1" stop-color="#87CC50"/></linearGradient><linearGradient id="paint1_linear" x1="8.248" y1="21.348" x2="28.895" y2="35.05" gradientUnits="userSpaceOnUse"><stop stop-color="#8CDB3E"/><stop offset="1" stop-color="#37BB5C"/></linearGradient><linearGradient id="paint2_linear" x1="27.5" y1="22.497" x2="33.548" y2="36.199" gradientUnits="userSpaceOnUse"><stop stop-color="#61BB37"/><stop offset="1" stop-color="#B2EA3B"/></linearGradient><linearGradient id="paint3_linear" x1="25.972" y1="35.959" x2="27.479" y2="40.008" gradientUnits="userSpaceOnUse"><stop stop-color="#4EAB0E"/><stop offset=".667" stop-color="#80CB4D"/></linearGradient><filter id="filter0_d" x="-50" y="-60" width="143" height="139" filterUnits="userSpaceOnUse" color-interpolation-filters="sRGB"><feFlood flood-opacity="0" result="BackgroundImageFix"/><feColorMatrix in="SourceAlpha" values="0 0 0 0 0 0 0 0 0 0 0 0 0 0 0 0 0 0 127 0"/><feOffset dy="-20"/><feGaussianBlur stdDeviation="29.5"/><feColorMatrix values="0 0 0 0 0.0070833 0 0 0 0 0.566667 0 0 0 0 0.365217 0 0 0 0.54 0"/><feBlend in2="BackgroundImageFix" result="effect1_dropShadow"/><feBlend in="SourceGraphic" in2="effect1_dropShadow" result="shape"/></filter><filter id="filter1_f" x="-73.569" y="-68.236" width="203.634" height="201.579" filterUnits="userSpaceOnUse" color-interpolation-filters="sRGB"><feFlood flood-opacity="0" result="BackgroundImageFix"/><feBlend in="SourceGraphic" in2="BackgroundImageFix" result="shape"/><feGaussianBlur stdDeviation="45" result="effect1_foregroundBlur"/></filter><filter id="filter2_d" x="20" y="33" width="15" height="7" filterUnits="userSpaceOnUse" color-interpolation-filters="sRGB"><feFlood flood-opacity="0" result="BackgroundImageFix"/><feColorMatrix in="SourceAlpha" values="0 0 0 0 0 0 0 0 0 0 0 0 0 0 0 0 0 0 127 0"/><feOffset dy="-1"/><feColorMatrix values="0 0 0 0 1 0 0 0 0 1 0 0 0 0 1 0 0 0 0.25 0"/><feBlend in2="BackgroundImageFix" result="effect1_dropShadow"/><feBlend in="SourceGraphic" in2="effect1_dropShadow" result="shape"/></filter></defs></svg>