<svg xmlns="http://www.w3.org/2000/svg" xmlns:xlink="http://www.w3.org/1999/xlink"><defs>
<filter id="filter0_d" x="-50" y="-60" width="143" height="139" filterUnits="userSpaceOnUse" color-interpolation-filters="sRGB">
<feFlood flood-opacity="0" result="BackgroundImageFix"/>
<feColorMatrix in="SourceAlpha" type="matrix" values="0 0 0 0 0 0 0 0 0 0 0 0 0 0 0 0 0 0 127 0"/>
<feOffset dy="-20"/>
<feGaussianBlur stdDeviation="29.5"/>
<feColorMatrix type="matrix" values="0 0 0 0 0.0070833 0 0 0 0 0.566667 0 0 0 0 0.365217 0 0 0 0.54 0"/>
<feBlend mode="normal" in2="BackgroundImageFix" result="effect1_dropShadow"/>
<feBlend mode="normal" in="SourceGraphic" in2="effect1_dropShadow" result="shape"/>
</filter>
<filter id="filter1_f" x="-73.5691" y="-68.2358" width="203.634" height="201.579" filterUnits="userSpaceOnUse" color-interpolation-filters="sRGB">
<feFlood flood-opacity="0" result="BackgroundImageFix"/>
<feBlend mode="normal" in="SourceGraphic" in2="BackgroundImageFix" result="shape"/>
<feGaussianBlur stdDeviation="45" result="effect1_foregroundBlur"/>
</filter>
<filter id="filter2_d" x="20" y="33" width="15" height="7" filterUnits="userSpaceOnUse" color-interpolation-filters="sRGB">
<feFlood flood-opacity="0" result="BackgroundImageFix"/>
<feColorMatrix in="SourceAlpha" type="matrix" values="0 0 0 0 0 0 0 0 0 0 0 0 0 0 0 0 0 0 127 0"/>
<feOffset dy="-1"/>
<feColorMatrix type="matrix" values="0 0 0 0 1 0 0 0 0 1 0 0 0 0 1 0 0 0 0.25 0"/>
<feBlend mode="normal" in2="BackgroundImageFix" result="effect1_dropShadow"/>
<feBlend mode="normal" in="SourceGraphic" in2="effect1_dropShadow" result="shape"/>
</filter>
<linearGradient id="paint0_linear" x1="33.0097" y1="11.2087" x2="9.7001" y2="21.9589" gradientUnits="userSpaceOnUse">
<stop stop-color="#58B42D"/>
<stop offset="1" stop-color="#87CC50"/>
</linearGradient>
<linearGradient id="paint1_linear" x1="8.2485" y1="21.3481" x2="28.8951" y2="35.0499" gradientUnits="userSpaceOnUse">
<stop stop-color="#8CDB3E"/>
<stop offset="1" stop-color="#37BB5C"/>
</linearGradient>
<linearGradient id="paint2_linear" x1="27.5" y1="22.4975" x2="33.5479" y2="36.1994" gradientUnits="userSpaceOnUse">
<stop stop-color="#61BB37"/>
<stop offset="1" stop-color="#B2EA3B"/>
</linearGradient>
<linearGradient id="paint3_linear" x1="25.9718" y1="35.9593" x2="27.4788" y2="40.0079" gradientUnits="userSpaceOnUse">
<stop stop-color="#4EAB0E"/>
<stop offset="0.666667" stop-color="#80CB4D"/>
</linearGradient>
</defs><symbol id="anti-ad" viewBox="0 0 121 121">
<path d="M63.9189 41.667H63.9601H63.9189ZM63.9189 41.667L60.953 57.2119L71.7456 57.2529L57.0808 78.335L60.0467 61.2314L49.2541 61.1904L63.9189 41.667ZM63.9189 39.042H63.7129C63.4932 39.0693 63.301 39.1172 63.1362 39.1855C62.9714 39.2539 62.7861 39.3564 62.5801 39.4932C62.3741 39.6299 62.1888 39.7939 62.024 39.9854C61.9965 40.0127 61.9759 40.04 61.9622 40.0674C61.9485 40.0947 61.9279 40.1221 61.9004 40.1494L47.1121 59.5908C46.4804 60.4658 46.4118 61.3818 46.9061 62.3389C46.9885 62.5029 47.0915 62.6602 47.215 62.8105C47.3386 62.9609 47.4759 63.0977 47.627 63.2207C47.778 63.3438 47.9428 63.4463 48.1213 63.5283C48.2998 63.6104 48.4852 63.6719 48.6774 63.7129C48.8696 63.7539 49.0619 63.7744 49.2541 63.7744L56.8748 63.8154L54.4444 77.8838C54.3346 78.4854 54.4307 79.0527 54.7328 79.5859C55.0349 80.1191 55.4605 80.5088 56.0098 80.7549C56.1746 80.8369 56.3462 80.8916 56.5247 80.9189C56.7032 80.9463 56.8886 80.96 57.0808 80.96C57.8772 80.96 58.55 80.6045 59.0993 79.8936L73.8876 58.8115C74.5193 57.9365 74.5879 57.0205 74.0936 56.0635C73.5993 55.1064 72.8166 54.6279 71.7456 54.6279H64.1248L66.514 42.2822C66.5415 42.1729 66.5621 42.0703 66.5758 41.9746C66.5896 41.8789 66.5964 41.7764 66.5964 41.667C66.5964 41.4209 66.5621 41.1885 66.4935 40.9697C66.4248 40.751 66.3355 40.5459 66.2257 40.3545C66.1158 40.1631 65.9854 39.9854 65.8344 39.8213C65.6833 39.6572 65.5117 39.5205 65.3194 39.4111C65.1272 39.3018 64.9212 39.2129 64.7015 39.1445C64.4818 39.0762 64.2622 39.042 64.0425 39.042H63.9189Z" fill="#322C42"/>
<path d="M51.9227 112.116L50.2461 111.665L48.609 113.82L44.5663 112.735L44.2294 110.049L42.4582 109.573L43.9107 120.14L45.371 120.532L51.9227 112.116ZM45.2589 118.197L44.7841 114.46L47.5559 115.205L45.2589 118.197Z" fill="#322C42"/>
<path d="M41.7949 108.925L40.3331 108.25L38.5318 112.152C38.0301 112.337 37.5295 112.352 37.0338 112.124C36.2203 111.748 35.9495 111.099 36.3719 110.184L37.8036 107.082L36.3419 106.407L34.7928 109.763C33.9655 111.555 34.6078 112.669 36.006 113.315C36.6924 113.631 37.4434 113.608 37.9567 113.398L37.6927 113.97L39.1544 114.645L41.7949 108.925Z" fill="#322C42"/>
<path d="M33.5377 107.347C34.4109 105.994 34.465 104.929 33.2653 104.155C32.5831 103.714 31.8514 103.609 31.3668 103.662L31.1027 104.975C31.3821 104.955 31.7471 104.958 32.1118 105.193C32.5587 105.482 32.504 105.98 32.1319 106.556L30.8867 108.485L29.1812 107.384L28.3612 108.654L30.0667 109.755L29.1176 111.226L30.4703 112.099L33.5377 107.347Z" fill="#322C42"/>
<path d="M29.0353 101.192L27.7941 100.167L23.7816 105.023L25.0228 106.049L29.0353 101.192ZM23.7078 107.904C24.118 107.408 23.9936 106.833 23.5727 106.485C23.2165 106.191 22.6285 106.177 22.2183 106.674C21.8527 107.116 21.9771 107.691 22.3333 107.985C22.7542 108.333 23.3422 108.347 23.7078 107.904Z" fill="#322C42"/>
<path d="M22.9734 99.8571L20.5351 97.3072L19.4525 98.3425L21.8907 100.892L22.9734 99.8571Z" fill="#322C42"/>
<path d="M23.0555 91.0855L22.117 89.7773L19.7168 91.4992C19.6752 91.081 19.4366 90.5803 19.1102 90.1253C17.935 88.4872 15.9621 88.2829 14.4037 89.4009C12.8907 90.4863 12.4515 92.1797 13.4634 93.5903C13.9367 94.2501 14.6423 94.6571 15.212 94.7308L14.7229 95.0817L15.6614 96.3899L23.0555 91.0855ZM14.9858 93.1185C14.3656 92.2539 14.6143 91.3518 15.4334 90.7642C16.2866 90.1522 17.3217 90.2021 17.9746 91.1122C18.2847 91.5445 18.4286 91.8892 18.4541 92.4051L16.3837 93.8903C15.8026 93.8248 15.304 93.5621 14.9858 93.1185Z" fill="#322C42"/>
<path d="M16.4422 86.0904L15.7132 84.6548L11.856 86.6134C11.3666 86.4536 10.9512 86.0993 10.7167 85.6374C10.3174 84.851 10.5447 84.1546 11.3811 83.7299L14.4519 82.1707L13.723 80.7352L10.4649 82.3895C8.70483 83.2832 8.48116 84.5744 9.17838 85.9475C9.50798 86.5966 10.0744 87.0627 10.6077 87.2472L6.97515 89.0917L7.70406 90.5272L16.4422 86.0904Z" fill="#322C42"/>
<path d="M13.0728 78.5534L12.5346 77.036L6.59701 79.1419L7.13518 80.6593L13.0728 78.5534ZM5.0538 81.5758C5.66076 81.3605 5.84939 80.8034 5.66687 80.2888C5.51244 79.8534 5.01495 79.5396 4.40799 79.7549C3.86701 79.9468 3.67838 80.5039 3.83281 80.9393C4.01532 81.4539 4.51282 81.7676 5.0538 81.5758Z" fill="#322C42"/>
<path d="M9.12735 70.8776C9.5101 70.7929 9.78009 71.106 9.87987 71.5571C10.0159 72.1722 9.85246 73.1834 9.53768 73.6402L10.7322 74.1789C11.1062 73.7951 11.4673 72.5107 11.2163 71.3762C10.8837 69.8725 9.91421 69.0546 8.69761 69.3237C6.52415 69.8045 7.81935 73.0022 6.79413 73.229C6.52074 73.2895 6.19752 73.0598 6.09169 72.5814C5.94656 71.9253 6.10517 71.2163 6.3106 70.7837L5.05967 70.4438C4.78893 70.9052 4.53449 71.7644 4.79755 72.9537C5.07875 74.225 5.96626 75.061 7.16919 74.7949C9.411 74.2991 8.12947 71.0983 9.12735 70.8776Z" fill="#322C42"/>
<path d="M10.2761 66.4359L10.1617 64.83L5.84665 65.1373C5.45771 64.8001 5.21244 64.3122 5.17565 63.7956C5.113 62.9158 5.59289 62.3623 6.52852 62.2957L9.96382 62.051L9.84946 60.4451L6.20469 60.7047C4.23568 60.8449 3.52824 61.9479 3.63763 63.484C3.68934 64.2102 4.03034 64.8596 4.45018 65.2367L0.386475 65.5261L0.500837 67.132L10.2761 66.4359Z" fill="#322C42"/>
<path d="M10.0973 58.1819L10.1905 56.5746L3.90102 56.21L3.80783 57.8173L10.0973 58.1819ZM1.53391 57.8537C2.17683 57.891 2.56696 57.4509 2.59856 56.9058C2.6253 56.4445 2.28866 55.9623 1.64573 55.925C1.0727 55.8918 0.682567 56.3319 0.655826 56.7931C0.624223 57.3382 0.960871 57.8205 1.53391 57.8537Z" fill="#322C42"/>
<path d="M10.6021 53.0595L10.9013 51.4776L6.67815 50.6789C6.37698 50.2372 6.24014 49.7554 6.3416 49.2189C6.50811 48.3385 7.07208 47.918 8.06252 48.1053L11.419 48.7401L11.7182 47.1582L8.08659 46.4713C6.14697 46.1045 5.22277 46.9983 4.93659 48.5115C4.7961 49.2543 5.00137 49.9771 5.33005 50.4239L4.71103 50.3068L4.41184 51.8888L10.6021 53.0595Z" fill="#322C42"/>
<path d="M12.9585 46.386C14.321 46.8581 15.3751 45.6972 15.9755 43.9642C16.5759 42.2313 16.4395 40.6579 15.1034 40.195C13.7673 39.7321 12.6867 40.8838 12.0863 42.6168L12.0634 42.6829C11.9525 42.7038 11.8375 42.6936 11.7316 42.6569C11.6655 42.634 11.5861 42.6065 11.5159 42.5525L11.5526 42.4467C12.0842 40.9122 11.4226 39.5717 10.232 39.1592C9.96746 39.0676 9.68455 39.0288 9.41436 39.0389L9.53321 37.9689L8.29785 37.6001L8.0714 39.5367C7.66475 39.8551 7.32726 40.3161 7.12102 40.9113C6.57563 42.4855 7.28611 43.8133 8.47668 44.2258C9.34977 44.5283 10.2958 44.2782 10.9646 43.5024C11.0516 43.6362 11.1966 43.7309 11.3421 43.7813C11.4744 43.8271 11.6469 43.8425 11.7888 43.8176C11.6328 45.0377 11.9663 46.0423 12.9585 46.386ZM13.4489 44.9705C13.0123 44.8193 12.9275 44.1232 13.3033 43.0384C13.6837 41.9405 14.1718 41.4725 14.6084 41.6237C15.0846 41.7887 15.116 42.5108 14.7585 43.5426C14.401 44.5744 13.9119 45.1309 13.4489 44.9705ZM8.97166 42.7971C8.42929 42.6092 8.11295 42.0255 8.35128 41.3376C8.59877 40.6232 9.18603 40.3822 9.74163 40.5747C10.3369 40.7809 10.5469 41.3723 10.3223 42.0205C10.084 42.7083 9.52726 42.9896 8.97166 42.7971Z" fill="#322C42"/>
<path d="M21.1996 28.5273L22.316 26.8655L19.5701 27.0616C19.1318 25.8059 18.15 24.556 16.86 23.6894L15.97 25.0143C17.0159 25.7169 17.6034 26.4994 17.9622 27.1453L14.8435 27.3439C15.0401 26.6496 14.6978 25.7281 13.9773 25.2441C12.8733 24.5025 11.5941 24.9756 10.9149 25.9866C10.2357 26.9977 10.2814 28.3607 11.3854 29.1024C12.1524 29.6176 12.9252 29.597 13.5672 29.2188C13.5933 30.6361 13.7285 31.9413 15.0882 32.8547C16.4362 33.7603 18.1501 33.3431 19.2586 31.6928C20.0862 30.461 20.0859 29.432 19.8906 28.6431L21.1996 28.5273ZM17.9534 30.7486C17.4772 31.4575 16.5446 31.6406 15.8358 31.1644C15.2198 30.7506 15.0242 30.0626 14.9197 28.8624L18.2828 28.7267C18.5058 29.3488 18.4374 30.0281 17.9534 30.7486ZM12.2207 27.8589C11.8256 27.5935 11.7381 27.0961 11.9957 26.7126C12.2455 26.3408 12.7585 26.23 13.142 26.4876C13.5022 26.7296 13.6208 27.2309 13.3554 27.626C13.09 28.0212 12.581 28.1009 12.2207 27.8589Z" fill="#322C42"/>
<path d="M25.8935 23.4483L27.2238 22.3328L26.3967 19.7559L29.6042 17.0663L31.9975 18.3298L33.4029 17.1514L23.9127 12.2833L22.7541 13.2549L25.8935 23.4483ZM24.7315 14.5018L28.0656 16.2554L25.8664 18.0995L24.7315 14.5018Z" fill="#322C42"/>
<path d="M34.3147 16.9801L35.7057 16.1693L33.5412 12.4561C33.6775 11.9392 33.9517 11.52 34.4234 11.2451C35.1975 10.7938 35.8847 10.9442 36.3924 11.8151L38.1126 14.7663L39.5036 13.9555L37.6423 10.7624C36.6482 9.05697 35.3674 8.94469 34.0369 9.72022C33.3838 10.1009 32.9724 10.7296 32.8503 11.2708L32.5331 10.7265L31.1421 11.5373L34.3147 16.9801Z" fill="#322C42"/>
<path d="M40.3417 11.1194C40.9493 12.6103 41.7907 13.2652 43.1131 12.7262C43.865 12.4198 44.3711 11.8809 44.6049 11.453L43.6808 10.4841C43.5368 10.7242 43.3256 11.022 42.9237 11.1858C42.431 11.3866 42.0545 11.0563 41.7956 10.421L40.929 8.2948L42.8089 7.52863L42.2382 6.12845L40.3583 6.89463L39.6978 5.27406L38.2069 5.88172L40.3417 11.1194Z" fill="#322C42"/>
<path d="M47.9658 10.9593L49.5176 10.5303L47.8388 4.45807L46.287 4.8871L47.9658 10.9593ZM45.5207 2.74588C45.6923 3.36659 46.2346 3.59432 46.7609 3.44882C47.2062 3.32571 47.5545 2.85175 47.3828 2.23104C47.2299 1.6778 46.6876 1.45007 46.2423 1.57319C45.716 1.71868 45.3677 2.19264 45.5207 2.74588Z" fill="#322C42"/>
<path d="M52.5349 6.75774L56.022 6.22194L55.7945 4.74132L52.3074 5.27712L52.5349 6.75774Z" fill="#322C42"/>
<path d="M60.0749 4.37934C60.5331 4.16125 60.9911 3.92916 61.719 3.91635C62.6569 3.89985 62.9469 4.46884 62.9234 5.51941C62.6115 5.30086 62.0484 5.12874 61.4885 5.13859C60.2147 5.16101 59.2044 5.83688 59.2288 7.22267C59.2502 8.44048 60.0886 9.13984 61.2365 9.11964C62.0903 9.10462 62.7563 8.75685 63.0839 8.27502L63.0967 9.0029L64.4965 8.97828L64.429 5.14287C64.3997 3.47713 63.7251 2.53685 61.8633 2.5696C61.0375 2.58413 60.1885 2.87911 59.6483 3.21067L60.0749 4.37934ZM61.7445 7.7525C61.2406 7.76136 60.844 7.5023 60.8356 7.02637C60.8262 6.49445 61.2977 6.23412 61.8296 6.22476C62.2916 6.21663 62.6572 6.30822 62.9409 6.51326L62.9522 7.15716C62.7612 7.44056 62.4164 7.74067 61.7445 7.7525Z" fill="#322C42"/>
<path d="M71.2977 9.80157L72.8943 10.0087L74.1551 0.290131L72.5585 0.0830078L72.0884 3.70664C71.7683 3.45336 71.3783 3.30395 70.8229 3.2319C68.8098 2.97075 67.2154 4.16152 66.9596 6.133C66.7129 8.03506 67.7013 9.44797 69.4923 9.6803C70.2976 9.78477 70.9082 9.53929 71.3824 9.14904L71.2977 9.80157ZM70.0182 8.23798C69.1713 8.12811 68.5304 7.40969 68.6745 6.299C68.824 5.14665 69.7537 4.61787 70.6978 4.74034C71.1282 4.79618 71.5146 4.97336 71.8849 5.2755L71.5589 7.78844C71.1511 8.10259 70.6013 8.31362 70.0182 8.23798Z" fill="#322C42"/>
<path d="M82.1372 6.14107L80.5072 5.68009L78.7287 7.95601C78.4566 8.30097 78.1252 8.80378 77.8879 9.23134C77.9135 8.72936 77.8773 8.13715 77.8185 7.7277L77.4356 4.81146L75.59 4.28952L76.6566 11.1673L77.8017 11.4912L82.1372 6.14107Z" fill="#322C42"/>
<path d="M86.9327 13.2956C86.4802 13.4146 85.778 13.4061 85.0756 13.0906C84.1689 12.6833 83.6916 11.901 83.954 10.9752L88.1044 12.8397C88.2658 12.6512 88.3889 12.4456 88.5495 12.088C89.2723 10.4789 88.5097 8.86251 87.0283 8.19704C85.1383 7.348 83.3866 8.17261 82.635 9.84557C81.8204 11.659 82.5199 13.4159 84.3717 14.2477C85.1762 14.6092 86.0968 14.7464 86.8895 14.5193L86.9327 13.2956ZM86.4137 9.39434C87.2566 9.77297 87.4952 10.5401 87.1669 11.2368L84.3446 9.96893C84.8363 9.2843 85.5326 8.99851 86.4137 9.39434Z" fill="#322C42"/>
<path d="M88.8341 16.4899L90.2007 17.3411L92.436 13.7523C92.7829 13.5396 93.1953 13.4336 93.6707 13.7297C93.9559 13.9073 94.0688 14.0437 94.2341 14.361L95.5207 13.3811C95.4238 13.1393 95.2543 12.9348 94.8147 12.6609C94.173 12.2612 93.67 12.3273 93.2058 12.5165L93.5315 11.9936L92.1649 11.1424L88.8341 16.4899Z" fill="#322C42"/>
<path d="M95.2389 17.9668C94.2263 19.2185 94.0587 20.2714 95.1689 21.1696C95.8002 21.6803 96.5164 21.8635 97.004 21.8618L97.4067 20.5849C97.1269 20.5746 96.7642 20.5333 96.4267 20.2603C96.0131 19.9257 96.1208 19.4365 96.5522 18.9032L97.9963 17.1182L99.5745 18.395L100.526 17.2195L98.9473 15.9427L100.048 14.5822L98.7963 13.5696L95.2389 17.9668Z" fill="#322C42"/>
<path d="M99.0583 24.5672L100.183 25.7193L104.691 21.3187L103.567 20.1666L99.0583 24.5672ZM105.072 18.4622C104.611 18.912 104.674 19.4969 105.055 19.8876C105.378 20.2182 105.961 20.2946 106.422 19.8447C106.833 19.4438 106.77 18.8589 106.448 18.5283C106.066 18.1376 105.483 18.0612 105.072 18.4622Z" fill="#322C42"/>
<path d="M105.857 29.8828C105.545 30.1201 105.169 29.949 104.889 29.5813C104.508 29.0798 104.233 28.0932 104.327 27.5466L103.017 27.5581C102.838 28.0633 103.048 29.3807 103.752 30.3057C104.684 31.5315 105.907 31.8677 106.899 31.1135C108.671 29.7661 106.155 27.4056 106.99 26.77C107.213 26.6005 107.603 26.6735 107.899 27.0636C108.306 27.5985 108.459 28.3087 108.454 28.7875L109.732 28.5718C109.785 28.0394 109.656 27.1527 108.918 26.1831C108.13 25.1468 106.974 24.7597 105.993 25.5054C104.166 26.8952 106.671 29.2642 105.857 29.8828Z" fill="#322C42"/>
<path d="M106.823 34.7027L107.633 36.0943L113.078 32.9256L112.269 31.534L106.823 34.7027ZM114.144 30.2481C113.588 30.572 113.505 31.1544 113.78 31.6263C114.012 32.0256 114.559 32.2419 115.116 31.918C115.612 31.6293 115.694 31.0469 115.462 30.6476C115.187 30.1757 114.64 29.9594 114.144 30.2481Z" fill="#322C42"/>
<path d="M109.231 39.2523L109.855 40.7364L113.817 39.0705C114.312 39.2725 114.692 39.5986 114.904 40.1019C115.251 40.9279 115.013 41.5899 114.084 41.9806L110.935 43.3046L111.559 44.7888L114.966 43.3562C116.785 42.5911 117.062 41.3356 116.466 39.916C116.173 39.2191 115.602 38.7298 115.082 38.5387L115.662 38.2946L115.038 36.8104L109.231 39.2523Z" fill="#322C42"/>
<path d="M110.951 46.1175C109.554 46.4762 109.316 48.0261 109.773 49.8025C110.229 51.5788 111.211 52.8152 112.581 52.4635C113.951 52.1117 114.216 50.5548 113.759 48.7785L113.742 48.7107C113.823 48.6321 113.924 48.5771 114.033 48.5492C114.101 48.5318 114.182 48.5109 114.27 48.5171L114.298 48.6256C114.702 50.1985 115.994 50.9508 117.214 50.6374C117.486 50.5677 117.743 50.4438 117.962 50.2862L118.454 51.244L119.688 50.8693L118.807 49.1297C118.971 48.6396 118.997 48.069 118.841 47.4588C118.426 45.8452 117.101 45.1305 115.88 45.4439C114.985 45.6738 114.335 46.4047 114.206 47.4208C114.059 47.3572 113.886 47.3583 113.737 47.3966C113.601 47.4314 113.449 47.5139 113.344 47.6131C112.801 46.5096 111.968 45.8562 110.951 46.1175ZM111.324 47.5684C111.771 47.4534 112.226 47.987 112.512 49.0989C112.801 50.2244 112.652 50.8841 112.205 50.999C111.717 51.1244 111.292 50.5397 111.02 49.482C110.748 48.4244 110.849 47.6903 111.324 47.5684ZM116.257 46.9084C116.812 46.7656 117.399 47.0776 117.58 47.7827C117.768 48.515 117.411 49.0402 116.842 49.1865C116.231 49.3432 115.73 48.9661 115.559 48.3017C115.378 47.5966 115.687 47.0547 116.257 46.9084Z" fill="#322C42"/>
<path d="M118.622 59.1255C118.84 59.5839 119.071 60.042 119.084 60.7699C119.099 61.7078 118.53 61.9974 117.48 61.9731C117.698 61.6614 117.871 61.0984 117.862 60.5385C117.84 59.2647 117.165 58.2539 115.779 58.2773C114.561 58.2978 113.861 59.1358 113.881 60.2836C113.895 61.1375 114.242 61.8037 114.724 62.1316L113.996 62.1439L114.02 63.5437L117.855 63.479C119.521 63.4509 120.462 62.777 120.43 60.9152C120.416 60.0893 120.122 59.2402 119.791 58.6997L118.622 59.1255ZM115.247 60.7926C115.239 60.2887 115.498 59.8923 115.974 59.8842C116.506 59.8753 116.766 60.3469 116.775 60.8789C116.783 61.3408 116.691 61.7064 116.486 61.9899L115.842 62.0008C115.559 61.8095 115.259 61.4645 115.247 60.7926Z" fill="#322C42"/>
<path d="M110.982 65.6371L110.773 67.2336L113.703 67.6158C113.447 67.9495 113.28 68.4783 113.207 69.0336C112.946 71.0326 114.248 72.5295 116.149 72.7777C117.996 73.0185 119.473 72.0818 119.698 70.3604C119.803 69.5552 119.566 68.776 119.2 68.333L119.797 68.4108L120.005 66.8144L110.982 65.6371ZM118.264 69.665C118.126 70.7201 117.328 71.209 116.329 71.0786C115.288 70.9427 114.566 70.1991 114.711 69.0885C114.779 68.561 114.91 68.2109 115.244 67.8168L117.77 68.1464C118.15 68.5913 118.335 69.1236 118.264 69.665Z" fill="#322C42"/>
<path d="M109.71 73.0229L109.262 74.5693L112.099 75.3918C111.796 75.683 111.55 76.1801 111.394 76.7179C110.832 78.6542 111.891 80.3314 113.733 80.8655C115.522 81.384 117.124 80.6825 117.608 79.0152C117.834 78.2353 117.718 77.4291 117.424 76.9356L118.002 77.1033L118.45 75.557L109.71 73.0229ZM116.296 78.1101C116 79.132 115.137 79.494 114.169 79.2133C113.16 78.921 112.56 78.0763 112.871 77.0006C113.02 76.4897 113.202 76.1634 113.591 75.8246L116.039 76.5341C116.346 77.0314 116.448 77.5857 116.296 78.1101Z" fill="#322C42"/>
<path d="M111.407 82.0721C110.229 81.5504 109.482 81.7858 109.091 82.669C108.784 83.3602 108.781 83.9558 108.902 84.4077L110.165 84.5995C110.116 84.3636 110.099 84.1263 110.201 83.8959C110.354 83.5503 110.704 83.5214 111.356 83.8107L118.128 86.8106L118.78 85.3387L111.407 82.0721Z" fill="#322C42"/>
<path d="M106.973 87.0504L106.161 88.4408L111.601 91.6174L112.413 90.227L106.973 87.0504ZM114.456 91.2255C113.9 90.9008 113.353 91.1162 113.078 91.5877C112.845 91.9867 112.926 92.5692 113.482 92.8939C113.978 93.1833 114.525 92.9679 114.758 92.5689C115.034 92.0974 114.952 91.5149 114.456 91.2255Z" fill="#322C42"/>
<path d="M102.963 96.4794C102.853 95.8849 102.92 95.2666 103.336 94.7211C103.913 93.9642 104.985 93.6901 105.876 94.3693C106.755 95.0401 106.782 96.1352 106.239 96.8476C105.891 97.304 105.454 97.6224 104.798 97.7207L105.353 99.0945C106.177 98.9835 106.94 98.4213 107.569 97.5976C108.732 96.0726 108.378 94.1124 106.92 93.0002C105.339 91.7945 103.461 92.0873 102.221 93.7125C101.601 94.5251 101.324 95.5112 101.57 96.3673L102.963 96.4794Z" fill="#322C42"/>
<path d="M102.431 100.691C102.25 101.165 102.078 101.649 101.56 102.16C100.892 102.819 100.289 102.607 99.5821 101.83C99.9587 101.773 100.485 101.509 100.884 101.116C101.791 100.222 102.057 99.0355 101.083 98.0486C100.228 97.1814 99.1387 97.253 98.3214 98.0591C97.7133 98.6588 97.4708 99.3699 97.5658 99.9447L97.0546 99.4264L96.0578 100.409L98.7513 103.141C99.9211 104.327 101.058 104.543 102.384 103.235C102.972 102.655 103.383 101.856 103.546 101.244L102.431 100.691ZM98.8961 99.3996C99.255 99.0457 99.7209 98.9598 100.055 99.2988C100.429 99.6775 100.267 100.191 99.8879 100.565C99.559 100.889 99.231 101.075 98.8842 101.122L98.432 100.664C98.3749 100.327 98.4177 99.8715 98.8961 99.3996Z" fill="#322C42"/>
<path d="M95.5984 103.762C94.6323 102.475 93.6523 102.055 92.51 102.911C91.8604 103.399 91.5076 104.048 91.3901 104.522L92.5297 105.224C92.6081 104.955 92.7369 104.614 93.0841 104.353C93.5097 104.034 93.9577 104.258 94.3693 104.807L95.747 106.644L94.1231 107.862L95.0304 109.071L96.6543 107.853L97.7044 109.253L98.9924 108.287L95.5984 103.762Z" fill="#322C42"/>
<path d="M88.2645 105.852L86.8724 106.661L90.0371 112.108L91.4292 111.299L88.2645 105.852ZM92.7138 113.176C92.3903 112.619 91.808 112.537 91.3358 112.811C90.9364 113.043 90.7197 113.59 91.0432 114.147C91.3316 114.643 91.9139 114.726 92.3134 114.494C92.7855 114.219 93.0021 113.672 92.7138 113.176Z" fill="#322C42"/>
<path d="M85.2934 111.009C84.5621 109.266 82.7757 108.483 80.8522 109.29C78.9286 110.097 78.2364 111.921 78.9677 113.663C79.699 115.406 81.4854 116.19 83.409 115.383C85.3325 114.576 86.0247 112.752 85.2934 111.009ZM83.7055 111.675C84.1281 112.682 83.7018 113.62 82.8239 113.989C81.9203 114.368 80.9544 113.984 80.5427 113.003C80.1202 111.996 80.5152 111.056 81.4318 110.671C82.3355 110.292 83.2993 110.707 83.7055 111.675Z" fill="#322C42"/>
<path d="M76.2852 111.006L74.7232 111.397L75.765 115.566C75.4899 116.025 75.1095 116.351 74.5798 116.483C73.7105 116.7 73.0926 116.364 72.8483 115.386L72.0203 112.072L70.4583 112.462L71.3541 116.048C71.8326 117.963 73.0312 118.428 74.5253 118.055C75.2587 117.872 75.8292 117.383 76.0975 116.897L76.2502 117.509L77.8122 117.118L76.2852 111.006Z" fill="#322C42"/>
</symbol><symbol id="app-pic" viewBox="0 0 58 58">
<circle cx="29" cy="29" r="29" fill="#322C42"/>
<path d="M23.7769 36.2509L23.7799 36.2519L22.6691 38.2408C22.2636 38.9668 21.3656 39.2155 20.6633 38.7964C19.9611 38.3772 19.7204 37.4489 20.1258 36.7229L20.9441 35.2578L21.0227 35.1171C21.1629 34.9088 21.509 34.5491 22.2013 34.6168C22.2013 34.6168 23.8304 34.7995 23.9483 35.6748C23.9483 35.6748 23.9643 35.9628 23.7769 36.2509ZM39.5317 31.1712H36.0678C35.8319 31.1548 35.729 31.0677 35.6884 31.017L35.6858 31.0125L31.978 24.3734L31.9731 24.3767L31.7508 24.0471C31.3863 23.471 30.8076 24.9445 30.8076 24.9445C30.1166 26.5865 30.9057 28.4532 31.1807 29.0174L36.3309 38.2388C36.7363 38.9647 37.6343 39.2136 38.3367 38.7943C39.0389 38.3751 39.2796 37.4468 38.874 36.7208L37.5863 34.415C37.5613 34.3591 37.5179 34.2075 37.782 34.2068H39.5317C40.3426 34.2068 41 33.5272 41 32.6889C41 31.8506 40.3426 31.1711 39.5317 31.1711V31.1712ZM32.8037 33.2346C32.8037 33.2346 32.9886 34.2068 32.2733 34.2068H19.4683C18.6574 34.2068 18 33.5272 18 32.6889C18 31.8506 18.6574 31.1711 19.4683 31.1711H22.7603C23.2918 31.1393 23.4177 30.8221 23.4177 30.8221L23.4208 30.8237L27.7179 23.1296L27.7166 23.1293C27.7949 22.9807 27.7297 22.8402 27.7184 22.818L26.2992 20.277C25.8937 19.5511 26.1343 18.6227 26.8366 18.2036C27.5389 17.7845 28.437 18.0331 28.8424 18.7591L29.5006 19.9376L30.1576 18.7612C30.563 18.0353 31.4611 17.7865 32.1634 18.2057C32.8657 18.6249 33.1063 19.5531 32.7008 20.2791L26.7211 30.9856C26.695 31.0508 26.687 31.1531 26.8816 31.1711H30.4558L30.4566 31.2071C30.4566 31.2071 32.5224 31.2403 32.8037 33.2346Z" fill="white"/>
</symbol><symbol id="arrow-up" viewBox="0 0 14 40">
<path d="M7 0L0 7.05628L1.20621 8.27219L5.29416 4.15137V40H7H8.70584L8.70584 4.15137L12.7938 8.27219L14 7.05628L7 0Z" fill="white"/>
</symbol><symbol id="arrow" viewBox="0 0 29 9">
<path d="M0.5 7.5H26L19.5 1" stroke="#080A17" stroke-width="2"/>
</symbol><symbol id="line1" viewBox="0 0 1012 564">
<path opacity="0.24" d="M1092.04 399C1086.71 454.167 1043.54 564.2 913.545 563C751.045 561.5 809.545 409 857.545 414C905.545 419 833.545 505.5 778.045 492.5C722.545 479.5 779.045 325.5 660.545 296.5C542.045 267.5 399.545 388.5 352.045 325C304.545 261.5 331.941 136.901 437.045 172.5C468.045 183 429.045 238.5 339.545 172.5C259.302 113.326 -4 130 1 70C5 22 117.833 -7.33333 179.5 -27.5" stroke="#0A0E1D"/>
</symbol><symbol id="line2" viewBox="0 0 887 364">
<path opacity="0.24" d="M7.92577 362.693C-15.4476 334.317 -46.8103 262.461 14.7267 202.05C91.6478 126.536 135.737 225.502 110.878 245.67C86.0194 265.838 79.2185 191.497 111.347 171.563C143.476 151.629 189.206 250.36 258.389 208.382C327.571 166.404 345.513 64.4606 398 61C443.5 58 487.371 129.113 421.377 161.713C401.912 171.329 394.173 127.005 467.108 115.983C541.5 104.74 648.175 -25.2168 673.972 5.27023C694.609 29.6599 586.96 112.946 635.98 134.723C685 156.5 826.8 89.4863 886 5.27024" stroke="#0A0E1D"/>
</symbol><symbol id="line3" viewBox="0 0 1440 445">
<path opacity="0.24" d="M-7.07417 444.674C-30.4476 416.298 -61.8101 344.442 -0.273185 284.031C76.648 208.517 120.737 307.483 95.8783 327.651C71.0196 347.819 64.2186 273.478 96.3473 253.544C128.476 233.61 174.206 332.341 243.389 290.363C312.571 248.385 330.514 146.442 383 142.981C428.5 139.981 472.372 211.094 406.377 243.694C386.912 253.31 379.173 208.986 452.108 197.964C526.5 186.721 633.175 56.7643 658.972 87.2513C679.609 111.641 571.96 194.927 620.98 216.704C670 238.481 807.5 126.003 871 87.2513C934.5 48.5 1026 172.5 1020.5 196.5C1015 220.5 995.734 207.5 995.5 196.5C994.5 149.5 1053 50 1164.5 100.5C1276 151 1252.5 388 1326.5 279C1400.5 170 1378 -180 1610.5 120.5" stroke="#0A0E1D"/>
</symbol><symbol id="line4" viewBox="0 0 902 592">
<path opacity="0.24" d="M901.115 165.01C895.782 109.843 852.615 -0.190234 722.615 1.00977C560.115 2.50977 618.615 155.01 666.615 150.01C714.615 145.01 642.615 58.5098 587.115 71.5098C531.615 84.5098 588.115 238.51 469.615 267.51C351.115 296.51 208.615 175.51 161.115 239.01C113.615 302.51 141.011 427.109 246.115 391.51C277.115 381.01 238.115 325.51 148.615 391.51C68.372 450.683 -194.93 434.01 -189.93 494.01C-185.93 542.01 -73.0963 571.343 -11.4296 591.51" stroke="#0A0E1D"/>
</symbol><symbol id="line5" viewBox="0 0 1440 445">
<path opacity="0.24" d="M1481.15 444.373C1504.52 415.997 1535.88 344.141 1474.35 283.73C1397.43 208.216 1353.34 307.181 1378.19 327.35C1403.05 347.518 1409.85 273.176 1377.73 253.243C1345.6 233.309 1299.87 332.04 1230.68 290.062C1161.5 248.083 1143.56 146.14 1091.07 142.68C1045.57 139.68 1001.7 210.793 1067.7 243.393C1087.16 253.008 1094.9 208.685 1021.97 197.662C947.573 186.42 840.898 56.4628 815.101 86.9498C794.464 111.339 902.113 194.625 853.093 216.403C804.073 238.18 666.573 125.701 603.073 86.9498C539.573 48.1985 448.073 172.199 453.573 196.199C459.073 220.198 478.339 207.198 478.573 196.199C479.573 149.199 421.073 49.6985 309.573 100.199C198.073 150.699 221.573 387.699 147.573 278.699C73.573 169.699 96.073 -180.301 -136.427 120.199" stroke="#0A0E1D"/>
</symbol><symbol id="line6" viewBox="0 0 1440 586">
<path d="M-8 585C52.6373 498.928 185.585 340.023 185.585 396.842C185.585 419 83.4424 403.348 140.837 348.802C198.232 294.256 267.3 255.224 305.725 286.75C344.15 318.277 220.606 486.417 283.351 503.932C346.096 521.447 367.984 296.759 423.433 299.761C478.882 302.764 338.8 194.673 385.494 153.138C432.188 111.603 555.733 148.634 516.335 77.5749C476.936 6.51539 607.777 71.0695 558.651 70.0686C509.525 69.0678 490.069 0.00993562 572.27 1.01077C654.471 2.01161 733.102 208.104 844 84.5C954.898 -39.1036 934.849 134.381 956 115.5C966.906 105.765 904.965 92.087 903.019 122.613C901.074 153.138 885.022 295.257 970.142 247.217C1055.26 199.177 878.699 381.83 924.421 417.86C970.142 453.89 1084.44 432.372 1076.18 364.315C1067.91 296.258 1026.08 191.67 1103.9 200.178C1181.72 208.685 1260.14 386.464 1280.46 335.791C1289 314.5 1226.96 315.274 1243.01 353.306C1259.06 391.338 1304 451.5 1328.13 412.355C1366.66 349.85 1225.01 191.17 1328.13 160.645C1410.62 136.224 1437.08 137.458 1440 141.128" stroke="#C4C5C9"/>
</symbol><symbol id="logo" viewBox="0 0 48 48">
<circle cx="24" cy="24" r="24" fill="white"/>
<path fill-rule="evenodd" clip-rule="evenodd" d="M9 18.3472C9 12.0803 14.3726 7 21 7H25.8784C29.8116 7 33 10.015 33 13.7342V15.0722C33 18.864 29.1698 21.6068 25.31 20.5789L21.4806 19.5591C18.7166 18.823 17.8242 15.5383 19.8708 13.6336C20.5705 12.9825 21.5129 12.6175 22.4946 12.6175H24.1916C25.2355 12.6175 26.0817 13.4177 26.0817 14.4048C26.0817 15.3919 25.2355 16.1921 24.1916 16.1921H22.7822L26.3347 17.1382C27.7828 17.5238 29.2198 16.4948 29.2198 15.0722V13.7342C29.2198 11.9892 27.7238 10.5746 25.8784 10.5746H21C16.4603 10.5746 12.7802 14.0545 12.7802 18.3472V24H9V18.3472Z" fill="url(#paint0_linear)"/>
<mask id="mask0" mask-type="alpha" maskUnits="userSpaceOnUse" x="9" y="7" width="25" height="33">
<path d="M21.2321 7C14.5012 7 9.04464 11.6622 9.04464 17.4133L9 18.8683L9 34.4573C9 37.5184 12.0838 40 15.888 40H25.3342C27.0766 40 28.7658 38.9668 30.1172 38.0817L31.7303 37.0251L33.3268 35.7283C33.8024 35.3419 34.0456 35.3581 33.9929 34.8159L33.8437 33.279C33.8133 32.9663 33.6452 32.6726 33.3695 32.4507L31.9455 31.3048L32.9401 27.7249C33.1947 27.2668 32.8906 26.733 32.2931 26.589L14.761 22.3345C14.5723 22.289 14.3835 22.254 14.1954 22.229C13.8354 22.1367 13.3823 22.0003 12.8839 21.8035V17.4133C12.8839 13.4739 16.6216 10.2804 21.2321 10.2804H25.8236C27.8984 10.2804 29.5804 11.7175 29.5804 13.4902V14.9936C29.5804 16.4016 27.9881 17.4092 26.4118 16.9989L22.8286 16.066C22.7944 16.0571 22.7816 16.0469 22.7745 16.0404C22.764 16.0308 22.7518 16.0145 22.7447 15.9917C22.7376 15.9689 22.7387 15.9496 22.7422 15.9368C22.7446 15.9282 22.7498 15.9139 22.7742 15.8916C22.7978 15.8702 22.8306 15.8581 22.8649 15.8581H24.4736C25.5338 15.8581 26.3933 15.1238 26.3933 14.2179C26.3933 13.3121 25.5338 12.5777 24.4736 12.5777H22.8649C21.7705 12.5777 20.7248 12.9644 19.9756 13.646C17.9649 15.4753 18.9 18.4724 21.7096 19.2039L25.2928 20.1368C29.3358 21.1894 33.4196 18.6049 33.4196 14.9936V13.4902C33.4196 9.90576 30.0188 7 25.8236 7H21.2321Z" fill="#61BB37"/>
</mask>
<g mask="url(#mask0)">
<g filter="url(#filter0_d)">
<path d="M14.1959 22.3397C12.9211 22.0149 10.4768 21.1404 9 19V34.4918C9 37.5339 12.0842 40 15.8887 40H25.3359C27.0785 40 28.5893 38.9719 29.9408 38.0923L31.554 37.0423L33.1508 35.7535C33.6264 35.3696 34.0482 35.387 33.9955 34.8482L33.8463 33.3209C33.8159 33.0101 33.6478 32.7182 33.3721 32.4978L31.9479 31.359L32.8533 27.7097C33.1079 27.2544 32.8038 26.7239 32.2063 26.5809L14.7616 22.4445C14.5728 22.3994 14.384 22.3646 14.1959 22.3397Z" fill="url(#paint1_linear)"/>
</g>
<g filter="url(#filter1_f)">
<path d="M39.7421 35.6746C38.2341 41.3772 31.8655 44.6028 25.5173 42.8793C19.1691 41.1557 15.2454 35.1357 16.7534 29.4331C18.2614 23.7305 24.6301 20.5049 30.9782 22.2284C37.3264 23.952 41.2501 29.972 39.7421 35.6746Z" fill="#0B2D55" fill-opacity="0.25"/>
</g>
</g>
<path d="M25 31C25 32.6569 23.8807 34 22.5 34C21.1193 34 20 32.6569 20 31C20 29.3431 21.1193 28 22.5 28C23.8807 28 25 29.3431 25 31Z" fill="#A1E13B"/>
<path d="M34.0896 22.0515C35.5202 22.6759 32.7886 26.9791 32.7886 27.7208C32.7886 28.4379 33.924 28.5512 34.2833 29.1656C36.2 32.4441 33.8673 35.4034 32.0227 36.3982C29.6943 39.7209 24.9252 39.1671 22.8317 38.4749C21.1977 39.0188 18.5426 38.4601 20.9935 31.8741C24.0571 23.6417 33.1353 21.635 34.0896 22.0515Z" fill="url(#paint2_linear)"/>
<g filter="url(#filter2_d)">
<path d="M25.5956 37.3121C21.3658 36.613 20.4545 37.5764 20 38.385C25.8777 42.3969 31.8025 37.8252 32.4138 36.5657C32.4477 36.4959 34.6238 35.5394 35 34C34.3607 35.0525 29.9393 38.03 25.5956 37.3121Z" fill="url(#paint3_linear)"/>
</g>
<path d="M30 32.5C30 34.433 28.6569 36 27 36C25.3431 36 24 34.433 24 32.5C24 30.567 25.3431 29 27 29C28.6569 29 30 30.567 30 32.5Z" fill="#79C939"/>
<path d="M30 32C30 33.6569 28.6569 35 27 35C25.3431 35 24 33.6569 24 32C24 30.3431 25.3431 29 27 29C28.6569 29 30 30.3431 30 32Z" fill="white"/>
<path d="M28 31C28 31.5523 27.7761 32 27.5 32C27.2239 32 27 31.5523 27 31C27 30.4477 27.2239 30 27.5 30C27.7761 30 28 30.4477 28 31Z" fill="#121521"/>
<path fill-rule="evenodd" clip-rule="evenodd" d="M29 31C29 31.5523 28.3284 32 27.5 32C26.6716 32 26 31.5523 26 31C26 30.4477 26.6716 30 27.5 30C28.3284 30 29 30.4477 29 31ZM27.5 31.5152C27.9268 31.5152 28.2727 31.2845 28.2727 31C28.2727 30.7155 27.9268 30.4848 27.5 30.4848C27.0732 30.4848 26.7273 30.7155 26.7273 31C26.7273 31.2845 27.0732 31.5152 27.5 31.5152Z" fill="#79C939"/>
<path d="M35.1239 36C34.4369 36 33.8192 36.6579 33.4555 37.1608C33.2927 37.3859 33.1986 37.6747 33.0375 37.9015C32.831 38.1922 32.5231 38.376 32.254 38.5367C31.9558 38.7147 31.9807 39.0559 32.0304 39.2042C32.1919 39.2784 32.6342 39.3377 33.1113 38.9817C33.2107 38.9075 33.3021 38.8243 33.3853 38.7369C33.8415 38.258 34.4149 37.479 34.9003 37.9136C35.1388 38.1272 35.0494 38.863 34.9748 39.2042C34.8755 39.308 34.6618 39.5691 34.6021 39.7827C34.5276 40.0497 35.683 40.0942 35.9439 39.7827C36.1526 39.5335 35.8569 39.2932 35.683 39.2042C35.5557 38.9003 35.5145 38.6342 35.5187 38.4163C35.5249 38.0891 35.833 38.0778 36.0342 38.2958C36.4926 38.7926 37.1418 39.1699 37.6584 39.2042C38.1951 39.2398 37.9814 38.8927 37.8075 38.7147C36.5403 38.2696 36.2794 36 35.1239 36Z" fill="#60B938"/>
<path d="M33 39C33 39.5523 32.5523 40 32 40C31.4477 40 31 39.5523 31 39C31 38.4477 31.4477 38 32 38C32.5523 38 33 38.4477 33 39Z" fill="#8AD33A"/>
<path d="M39 39C39 39.5523 38.5523 40 38 40C37.4477 40 37 39.5523 37 39C37 38.4477 37.4477 38 38 38C38.5523 38 39 38.4477 39 39Z" fill="#8AD33A"/>
<path d="M36 39.5C36 39.7761 35.5523 40 35 40C34.4477 40 34 39.7761 34 39.5C34 39.2239 34.4477 39 35 39C35.5523 39 36 39.2239 36 39.5Z" fill="#8AD33A"/>

</symbol></svg>